<svg id="Layer_1" data-name="Layer 1" xmlns="http://www.w3.org/2000/svg" viewBox="0 0 66.25 48.56"><defs><style>.cls-1,.cls-2,.cls-4{isolation:isolate;}.cls-2,.cls-4{font-size:22.36px;font-family:SignPainter-HouseScript, SignPainter;}.cls-2,.cls-3,.cls-4{fill:#444;}.cls-4{letter-spacing:-0.01em;}</style></defs><title>ash-logo</title><g class="cls-1"><text class="cls-2" transform="translate(0 19.01)">O</text><text class="cls-2" transform="translate(11.94 19.01)">ut</text></g><path class="cls-3" d="M23.17,25.69c-.38,1.54-1.52,3.36-2.85,3.81A2,2,0,0,1,18,28.7c-.8-1-.52-2.61.29-4a4.14,4.14,0,0,1,2.86-2.34,1.22,1.22,0,0,1,1.23.61c.41.56,1,.68.85,2v.42c0,.15.22,0,.36,0s.13.09,0,.18A.69.69,0,0,1,23.17,25.69Zm-1.53-.45a2.21,2.21,0,0,1-.83-1.55,6.26,6.26,0,0,0-1.39,1.69c-.76,1.37-1,3-.56,3.43s1.6-.22,2.49-1.88A10,10,0,0,0,22,25.49a1.11,1.11,0,0,1-.34-.27Zm.61-1.6c-.09-.58-.45-.47-.54,0A1.5,1.5,0,0,0,22.1,25a3.43,3.43,0,0,0,.15-1.35Z" transform="translate(0 0.01)"/><path class="cls-3" d="M26.32,28.09v.61a6.23,6.23,0,0,0,1.87-2.29c.11-.21.29-.23.38,0a1.8,1.8,0,0,1-.18,1.08,4.3,4.3,0,0,1-2.16,1.88,11.64,11.64,0,0,1-2,4.9c-.61.76-1.06.83-1.6.36a2.63,2.63,0,0,1-.8-2.61A18,18,0,0,1,23.68,27c1-2.31,2.22-4.56,3.44-6.79.2-.36.38-.73.57-1.09a1.52,1.52,0,0,1,.57-.68.88.88,0,0,1,.22-.1,2.18,2.18,0,0,1,1.23.19c.2.07.65.22.68.47a3.89,3.89,0,0,0-1,0,1.43,1.43,0,0,0-.64.6c-.14.2-.29.39-.42.6-.48.76-1,2.16-2.11,4.24-.06.11-.78,1.56-.83,1.55C26.07,26.21,26.34,26.9,26.32,28.09Zm-3.48,5.86c.4.52,1.75-2,2.35-4.44a1.26,1.26,0,0,1-1.1-.72C23.08,31.19,22.43,33.42,22.84,33.95Zm2.62-6.26c0-.66-.16-1.22-.29-1.17A3.57,3.57,0,0,0,24.81,28c0,.58.14,1,.49,1A8.39,8.39,0,0,0,25.46,27.69Z" transform="translate(0 0.01)"/><g class="cls-1"><text class="cls-4" transform="translate(27.9 37.63)">S</text><text class="cls-2" transform="translate(37.51 37.63)">ight</text></g></svg>